# xmcd
#
# Track frame offsets: 
#        150
#        12221
#        28161
#        40943
#        56614
#        71942
#        87405
#        104202
#        113914
#        137169
#        155877
#        171341
#        182854
#        199157
#        216797
#        232320
#
# Disc length: 3330 seconds
#
# Revision: 0
# Processed by: cddbd v1.5.2PL0 Copyright (c) Steve Scherf et al.
# Submitted via: ExactAudioCopyFreeDBPlugin 1.0
#
DISCID=fd0d0010
DTITLE=HE'S MY BROTHER SHE'S MY SISTER - NOBODY DANCES IN THIS TOWN
DYEAR=2012
DGENRE=
TTITLE0=Tales That I Tell
TTITLE1=Let It Live Free
TTITLE2=Let's Go
TTITLE3=The Same Old Ground
TTITLE4=Slow It Down
TTITLE5=Wake Your Heart
TTITLE6=Electric Love
TTITLE7=Clackin' Heels
TTITLE8=Touch The Lightning
TTITLE9=Choir Of The Dead
TTITLE10=Can't See The Stars
TTITLE11=Coattails
TTITLE12=How'm I Gonna Get Back Home
TTITLE13=Let It Live Free (live at Audio Tree)
TTITLE14=Can't See the Stars (live at Audio Tree)
TTITLE15=How'm I Gonna Get Back Home (Live)
EXTD=
EXTT0=
EXTT1=
EXTT2=
EXTT3=
EXTT4=
EXTT5=
EXTT6=
EXTT7=
EXTT8=
EXTT9=
EXTT10=
EXTT11=
EXTT12=
EXTT13=
EXTT14=
EXTT15=
PLAYORDER=
